<?xml version="1.0" encoding="UTF-8" standalone="no"?>
<!DOCTYPE svg PUBLIC "-//W3C//DTD SVG 1.1//EN"
 "http://www.w3.org/Graphics/SVG/1.1/DTD/svg11.dtd">
<!-- Generated by graphviz version 2.38.0 (20140413.2041)
 -->
<!-- Title: controllers_diagram Pages: 1 -->
<svg width="564pt" height="630pt"
 viewBox="0.00 0.00 564.00 629.50" xmlns="http://www.w3.org/2000/svg" xmlns:xlink="http://www.w3.org/1999/xlink">
<g id="graph0" class="graph" transform="scale(1 1) rotate(0) translate(196.5 370)">
<title>controllers_diagram</title>
<polygon fill="none" stroke="none" points="-196.5,259.5 -196.5,-370 367.5,-370 367.5,259.5 -196.5,259.5"/>
<!-- _diagram_info -->
<g id="node1" class="node"><title>_diagram_info</title>
<text text-anchor="start" x="136" y="64.4" font-family="Times,serif" font-size="13.00">Controllers diagram</text>
<text text-anchor="start" x="136" y="78.4" font-family="Times,serif" font-size="13.00">Date: Dec 17 2017 &#45; 23:23</text>
<text text-anchor="start" x="136" y="92.4" font-family="Times,serif" font-size="13.00">Migration version: 20171004235304</text>
<text text-anchor="start" x="136" y="106.4" font-family="Times,serif" font-size="13.00">Generated by RailRoady 1.5.3</text>
<text text-anchor="start" x="136" y="120.4" font-family="Times,serif" font-size="13.00">http://railroady.prestonlee.com</text>
</g>
<!-- PeriodicsController -->
<g id="node2" class="node"><title>PeriodicsController</title>
<path fill="none" stroke="black" d="M60,-272.5C60,-272.5 158,-272.5 158,-272.5 164,-272.5 170,-278.5 170,-284.5 170,-284.5 170,-353.5 170,-353.5 170,-359.5 164,-365.5 158,-365.5 158,-365.5 60,-365.5 60,-365.5 54,-365.5 48,-359.5 48,-353.5 48,-353.5 48,-284.5 48,-284.5 48,-278.5 54,-272.5 60,-272.5"/>
<text text-anchor="middle" x="109" y="-350.3" font-family="Times,serif" font-size="14.00">PeriodicsController</text>
<polyline fill="none" stroke="black" points="48,-342.5 170,-342.5 "/>
<text text-anchor="start" x="56" y="-327.3" font-family="Times,serif" font-size="14.00">index</text>
<polyline fill="none" stroke="black" points="48,-319.5 170,-319.5 "/>
<polyline fill="none" stroke="black" points="48,-295.5 170,-295.5 "/>
<text text-anchor="start" x="56" y="-280.3" font-family="Times,serif" font-size="14.00">_layout</text>
</g>
<!-- Users::RegistrationsController -->
<g id="node3" class="node"><title>Users::RegistrationsController</title>
<path fill="none" stroke="black" d="M-100,63C-100,63 82,63 82,63 88,63 94,57 94,51 94,51 94,-33 94,-33 94,-39 88,-45 82,-45 82,-45 -100,-45 -100,-45 -106,-45 -112,-39 -112,-33 -112,-33 -112,51 -112,51 -112,57 -106,63 -100,63"/>
<text text-anchor="middle" x="-9" y="-29.8" font-family="Times,serif" font-size="14.00">Users::RegistrationsController</text>
<polyline fill="none" stroke="black" points="-112,-22 94,-22 "/>
<polyline fill="none" stroke="black" points="-112,2 94,2 "/>
<text text-anchor="start" x="-104" y="17.2" font-family="Times,serif" font-size="14.00">configure_account_update_params</text>
<text text-anchor="start" x="-104" y="32.2" font-family="Times,serif" font-size="14.00">configure_sign_up_params</text>
<polyline fill="none" stroke="black" points="-112,40 94,40 "/>
<text text-anchor="start" x="-104" y="55.2" font-family="Times,serif" font-size="14.00">_layout</text>
</g>
<!-- Users::UnlocksController -->
<g id="node4" class="node"><title>Users::UnlocksController</title>
<path fill="none" stroke="black" d="M220.5,-209C220.5,-209 351.5,-209 351.5,-209 357.5,-209 363.5,-215 363.5,-221 363.5,-221 363.5,-291 363.5,-291 363.5,-297 357.5,-303 351.5,-303 351.5,-303 220.5,-303 220.5,-303 214.5,-303 208.5,-297 208.5,-291 208.5,-291 208.5,-221 208.5,-221 208.5,-215 214.5,-209 220.5,-209"/>
<text text-anchor="middle" x="286" y="-287.8" font-family="Times,serif" font-size="14.00">Users::UnlocksController</text>
<polyline fill="none" stroke="black" points="208.5,-280 363.5,-280 "/>
<polyline fill="none" stroke="black" points="208.5,-256 363.5,-256 "/>
<polyline fill="none" stroke="black" points="208.5,-232 363.5,-232 "/>
<text text-anchor="start" x="216.5" y="-216.8" font-family="Times,serif" font-size="14.00">_layout</text>
</g>
<!-- Users::PasswordsController -->
<g id="node5" class="node"><title>Users::PasswordsController</title>
<path fill="none" stroke="black" d="M-180.5,191C-180.5,191 -37.5,191 -37.5,191 -31.5,191 -25.5,185 -25.5,179 -25.5,179 -25.5,109 -25.5,109 -25.5,103 -31.5,97 -37.5,97 -37.5,97 -180.5,97 -180.5,97 -186.5,97 -192.5,103 -192.5,109 -192.5,109 -192.5,179 -192.5,179 -192.5,185 -186.5,191 -180.5,191"/>
<text text-anchor="middle" x="-109" y="112.2" font-family="Times,serif" font-size="14.00">Users::PasswordsController</text>
<polyline fill="none" stroke="black" points="-192.5,120 -25.5,120 "/>
<polyline fill="none" stroke="black" points="-192.5,144 -25.5,144 "/>
<polyline fill="none" stroke="black" points="-192.5,168 -25.5,168 "/>
<text text-anchor="start" x="-184.5" y="183.2" font-family="Times,serif" font-size="14.00">_layout</text>
</g>
<!-- Users::OmniauthCallbacksController -->
<g id="node6" class="node"><title>Users::OmniauthCallbacksController</title>
<path fill="none" stroke="black" d="M92,-81C92,-81 286,-81 286,-81 292,-81 298,-87 298,-93 298,-93 298,-163 298,-163 298,-169 292,-175 286,-175 286,-175 92,-175 92,-175 86,-175 80,-169 80,-163 80,-163 80,-93 80,-93 80,-87 86,-81 92,-81"/>
<text text-anchor="middle" x="189" y="-159.8" font-family="Times,serif" font-size="14.00">Users::OmniauthCallbacksController</text>
<polyline fill="none" stroke="black" points="80,-152 298,-152 "/>
<polyline fill="none" stroke="black" points="80,-128 298,-128 "/>
<polyline fill="none" stroke="black" points="80,-104 298,-104 "/>
<text text-anchor="start" x="88" y="-88.8" font-family="Times,serif" font-size="14.00">_layout</text>
</g>
<!-- Users::ConfirmationsController -->
<g id="node7" class="node"><title>Users::ConfirmationsController</title>
<path fill="none" stroke="black" d="M-131.5,-145C-131.5,-145 33.5,-145 33.5,-145 39.5,-145 45.5,-151 45.5,-157 45.5,-157 45.5,-227 45.5,-227 45.5,-233 39.5,-239 33.5,-239 33.5,-239 -131.5,-239 -131.5,-239 -137.5,-239 -143.5,-233 -143.5,-227 -143.5,-227 -143.5,-157 -143.5,-157 -143.5,-151 -137.5,-145 -131.5,-145"/>
<text text-anchor="middle" x="-49" y="-223.8" font-family="Times,serif" font-size="14.00">Users::ConfirmationsController</text>
<polyline fill="none" stroke="black" points="-143.5,-216 45.5,-216 "/>
<polyline fill="none" stroke="black" points="-143.5,-192 45.5,-192 "/>
<polyline fill="none" stroke="black" points="-143.5,-168 45.5,-168 "/>
<text text-anchor="start" x="-135.5" y="-152.8" font-family="Times,serif" font-size="14.00">_layout</text>
</g>
<!-- Users::SessionsController -->
<g id="node8" class="node"><title>Users::SessionsController</title>
<path fill="none" stroke="black" d="M12.5,255C12.5,255 145.5,255 145.5,255 151.5,255 157.5,249 157.5,243 157.5,243 157.5,173 157.5,173 157.5,167 151.5,161 145.5,161 145.5,161 12.5,161 12.5,161 6.5,161 0.5,167 0.5,173 0.5,173 0.5,243 0.5,243 0.5,249 6.5,255 12.5,255"/>
<text text-anchor="middle" x="79" y="176.2" font-family="Times,serif" font-size="14.00">Users::SessionsController</text>
<polyline fill="none" stroke="black" points="0.5,184 157.5,184 "/>
<polyline fill="none" stroke="black" points="0.5,208 157.5,208 "/>
<polyline fill="none" stroke="black" points="0.5,232 157.5,232 "/>
<text text-anchor="start" x="8.5" y="247.2" font-family="Times,serif" font-size="14.00">_layout</text>
</g>
<!-- ApplicationController -->
<g id="node9" class="node"><title>ApplicationController</title>
<path fill="none" stroke="black" d="M204,255C204,255 316,255 316,255 322,255 328,249 328,243 328,243 328,173 328,173 328,167 322,161 316,161 316,161 204,161 204,161 198,161 192,167 192,173 192,173 192,243 192,243 192,249 198,255 204,255"/>
<text text-anchor="middle" x="260" y="176.2" font-family="Times,serif" font-size="14.00">ApplicationController</text>
<polyline fill="none" stroke="black" points="192,184 328,184 "/>
<polyline fill="none" stroke="black" points="192,208 328,208 "/>
<polyline fill="none" stroke="black" points="192,232 328,232 "/>
<text text-anchor="start" x="200" y="247.2" font-family="Times,serif" font-size="14.00">_layout</text>
</g>
</g>
</svg>
