<?xml version="1.0" encoding="UTF-8" standalone="no"?>
<!DOCTYPE svg PUBLIC "-//W3C//DTD SVG 1.1//EN"
 "http://www.w3.org/Graphics/SVG/1.1/DTD/svg11.dtd">
<!-- Generated by graphviz version 2.38.0 (20140413.2041)
 -->
<!-- Title: models_diagram Pages: 1 -->
<svg width="532pt" height="158pt"
 viewBox="0.00 0.00 532.34 158.00" xmlns="http://www.w3.org/2000/svg" xmlns:xlink="http://www.w3.org/1999/xlink">
<g id="graph0" class="graph" transform="scale(1 1) rotate(0) translate(4 154)">
<title>models_diagram</title>
<polygon fill="none" stroke="none" points="-4,4 -4,-154 528.343,-154 528.343,4 -4,4"/>
<!-- _diagram_info -->
<g id="node1" class="node"><title>_diagram_info</title>
<text text-anchor="start" x="8" y="-135.6" font-family="Times,serif" font-size="13.00">Models diagram</text>
<text text-anchor="start" x="8" y="-121.6" font-family="Times,serif" font-size="13.00">Date: Dec 17 2017 &#45; 23:23</text>
<text text-anchor="start" x="8" y="-107.6" font-family="Times,serif" font-size="13.00">Migration version: 20171004235304</text>
<text text-anchor="start" x="8" y="-93.6" font-family="Times,serif" font-size="13.00">Generated by RailRoady 1.5.3</text>
<text text-anchor="start" x="8" y="-79.6" font-family="Times,serif" font-size="13.00">http://railroady.prestonlee.com</text>
</g>
<!-- PeriodicTable -->
<g id="node2" class="node"><title>PeriodicTable</title>
<ellipse fill="none" stroke="black" cx="292" cy="-111" rx="59.5901" ry="18"/>
<text text-anchor="middle" x="292" y="-107.3" font-family="Times,serif" font-size="14.00">PeriodicTable</text>
</g>
<!-- User -->
<g id="node4" class="node"><title>User</title>
<ellipse fill="none" stroke="black" cx="292" cy="-18" rx="27.0966" ry="18"/>
<text text-anchor="middle" x="292" y="-14.3" font-family="Times,serif" font-size="14.00">User</text>
</g>
<!-- PeriodicTable&#45;&gt;User -->
<g id="edge1" class="edge"><title>PeriodicTable&#45;&gt;User</title>
<path fill="none" stroke="#e0a131" d="M292,-84.7285C292,-72.7246 292,-58.3622 292,-46.1291"/>
<ellipse fill="none" stroke="#e0a131" cx="292" cy="-88.8836" rx="4" ry="4"/>
<polygon fill="#e0a131" stroke="#e0a131" points="292,-46.0397 296.5,-36.0396 292,-41.0397 292,-36.0397 292,-36.0397 292,-36.0397 292,-41.0397 287.5,-36.0397 292,-46.0397 292,-46.0397"/>
</g>
<!-- ApplicationRecord -->
<g id="node3" class="node"><title>ApplicationRecord</title>
<ellipse fill="none" stroke="black" cx="447" cy="-111" rx="77.1866" ry="18"/>
<text text-anchor="middle" x="447" y="-107.3" font-family="Times,serif" font-size="14.00">ApplicationRecord</text>
</g>
</g>
</svg>
