<?xml version="1.0" encoding="UTF-8" standalone="no"?>
<!DOCTYPE svg PUBLIC "-//W3C//DTD SVG 1.1//EN"
 "http://www.w3.org/Graphics/SVG/1.1/DTD/svg11.dtd">
<!-- Generated by graphviz version 2.38.0 (20140413.2041)
 -->
<!-- Title: models_diagram Pages: 1 -->
<svg width="656pt" height="483pt"
 viewBox="0.00 0.00 656.34 483.00" xmlns="http://www.w3.org/2000/svg" xmlns:xlink="http://www.w3.org/1999/xlink">
<g id="graph0" class="graph" transform="scale(1 1) rotate(0) translate(4 479)">
<title>models_diagram</title>
<polygon fill="none" stroke="none" points="-4,4 -4,-479 652.343,-479 652.343,4 -4,4"/>
<!-- _diagram_info -->
<g id="node1" class="node"><title>_diagram_info</title>
<text text-anchor="start" x="8" y="-431.1" font-family="Times,serif" font-size="13.00">Models diagram</text>
<text text-anchor="start" x="8" y="-417.1" font-family="Times,serif" font-size="13.00">Date: Dec 17 2017 &#45; 23:23</text>
<text text-anchor="start" x="8" y="-403.1" font-family="Times,serif" font-size="13.00">Migration version: 20171004235304</text>
<text text-anchor="start" x="8" y="-389.1" font-family="Times,serif" font-size="13.00">Generated by RailRoady 1.5.3</text>
<text text-anchor="start" x="8" y="-375.1" font-family="Times,serif" font-size="13.00">http://railroady.prestonlee.com</text>
</g>
<!-- PeriodicTable -->
<g id="node2" class="node"><title>PeriodicTable</title>
<path fill="none" stroke="black" d="M244,-338.5C244,-338.5 464,-338.5 464,-338.5 470,-338.5 476,-344.5 476,-350.5 476,-350.5 476,-462.5 476,-462.5 476,-468.5 470,-474.5 464,-474.5 464,-474.5 244,-474.5 244,-474.5 238,-474.5 232,-468.5 232,-462.5 232,-462.5 232,-350.5 232,-350.5 232,-344.5 238,-338.5 244,-338.5"/>
<text text-anchor="middle" x="354" y="-459.3" font-family="Times,serif" font-size="14.00">PeriodicTable</text>
<polyline fill="none" stroke="black" points="232,-451.5 476,-451.5 "/>
<text text-anchor="start" x="240" y="-436.3" font-family="Times,serif" font-size="14.00">id :integer</text>
<text text-anchor="start" x="240" y="-421.3" font-family="Times,serif" font-size="14.00">name :character varying</text>
<text text-anchor="start" x="240" y="-406.3" font-family="Times,serif" font-size="14.00">atomic_number :integer</text>
<text text-anchor="start" x="240" y="-391.3" font-family="Times,serif" font-size="14.00">atomic_weight :integer</text>
<text text-anchor="start" x="240" y="-376.3" font-family="Times,serif" font-size="14.00">Physical_state :character varying</text>
<text text-anchor="start" x="240" y="-361.3" font-family="Times,serif" font-size="14.00">created_at :timestamp without time zone</text>
<text text-anchor="start" x="240" y="-346.3" font-family="Times,serif" font-size="14.00">updated_at :timestamp without time zone</text>
</g>
<!-- User -->
<g id="node4" class="node"><title>User</title>
<path fill="none" stroke="black" d="M209.5,-0.5C209.5,-0.5 498.5,-0.5 498.5,-0.5 504.5,-0.5 510.5,-6.5 510.5,-12.5 510.5,-12.5 510.5,-289.5 510.5,-289.5 510.5,-295.5 504.5,-301.5 498.5,-301.5 498.5,-301.5 209.5,-301.5 209.5,-301.5 203.5,-301.5 197.5,-295.5 197.5,-289.5 197.5,-289.5 197.5,-12.5 197.5,-12.5 197.5,-6.5 203.5,-0.5 209.5,-0.5"/>
<text text-anchor="middle" x="354" y="-286.3" font-family="Times,serif" font-size="14.00">User</text>
<polyline fill="none" stroke="black" points="197.5,-278.5 510.5,-278.5 "/>
<text text-anchor="start" x="205.5" y="-263.3" font-family="Times,serif" font-size="14.00">id :integer</text>
<text text-anchor="start" x="205.5" y="-248.3" font-family="Times,serif" font-size="14.00">email :character varying</text>
<text text-anchor="start" x="205.5" y="-233.3" font-family="Times,serif" font-size="14.00">encrypted_password :character varying</text>
<text text-anchor="start" x="205.5" y="-218.3" font-family="Times,serif" font-size="14.00">reset_password_token :character varying</text>
<text text-anchor="start" x="205.5" y="-203.3" font-family="Times,serif" font-size="14.00">reset_password_sent_at :timestamp without time zone</text>
<text text-anchor="start" x="205.5" y="-188.3" font-family="Times,serif" font-size="14.00">remember_created_at :timestamp without time zone</text>
<text text-anchor="start" x="205.5" y="-173.3" font-family="Times,serif" font-size="14.00">sign_in_count :integer</text>
<text text-anchor="start" x="205.5" y="-158.3" font-family="Times,serif" font-size="14.00">current_sign_in_at :timestamp without time zone</text>
<text text-anchor="start" x="205.5" y="-143.3" font-family="Times,serif" font-size="14.00">last_sign_in_at :timestamp without time zone</text>
<text text-anchor="start" x="205.5" y="-128.3" font-family="Times,serif" font-size="14.00">current_sign_in_ip :inet</text>
<text text-anchor="start" x="205.5" y="-113.3" font-family="Times,serif" font-size="14.00">last_sign_in_ip :inet</text>
<text text-anchor="start" x="205.5" y="-98.3" font-family="Times,serif" font-size="14.00">created_at :timestamp without time zone</text>
<text text-anchor="start" x="205.5" y="-83.3" font-family="Times,serif" font-size="14.00">updated_at :timestamp without time zone</text>
<text text-anchor="start" x="205.5" y="-68.3" font-family="Times,serif" font-size="14.00">name :character varying</text>
<text text-anchor="start" x="205.5" y="-53.3" font-family="Times,serif" font-size="14.00">role :integer</text>
<text text-anchor="start" x="205.5" y="-38.3" font-family="Times,serif" font-size="14.00">last_name :character varying</text>
<text text-anchor="start" x="205.5" y="-23.3" font-family="Times,serif" font-size="14.00">age :integer</text>
<text text-anchor="start" x="205.5" y="-8.3" font-family="Times,serif" font-size="14.00">school :character varying</text>
</g>
<!-- PeriodicTable&#45;&gt;User -->
<g id="edge1" class="edge"><title>PeriodicTable&#45;&gt;User</title>
<path fill="none" stroke="#b61d6a" d="M354,-330.057C354,-324.267 354,-318.305 354,-312.233"/>
<ellipse fill="none" stroke="#b61d6a" cx="354" cy="-334.232" rx="4" ry="4"/>
<polygon fill="#b61d6a" stroke="#b61d6a" points="354,-311.92 358.5,-301.92 354,-306.92 354,-301.92 354,-301.92 354,-301.92 354,-306.92 349.5,-301.921 354,-311.92 354,-311.92"/>
</g>
<!-- ApplicationRecord -->
<g id="node3" class="node"><title>ApplicationRecord</title>
<ellipse fill="none" stroke="black" cx="571" cy="-406.5" rx="77.1866" ry="18"/>
<text text-anchor="middle" x="571" y="-402.8" font-family="Times,serif" font-size="14.00">ApplicationRecord</text>
</g>
</g>
</svg>
